<svg xmlns="http://www.w3.org/2000/svg" version="1.1" xmlns:xlink="http://www.w3.org/1999/xlink" xmlns:svgjs="http://svgjs.com/svgjs" width="1440" height="560" preserveAspectRatio="none" viewBox="0 0 1440 560"><g mask="url(&quot;#SvgjsMask1005&quot;)" fill="none"><rect width="1440" height="560" x="0" y="0" fill="url(#SvgjsLinearGradient1006)"></rect><path d="M-83.7 380.16L-83.7 380.16" stroke="#132e65" stroke-width="1.5"></path><path d="M-83.7 380.16L-91.93 553.18" stroke="#132e65" stroke-width="1.5"></path><path d="M-83.7 380.16L59.49 502.29" stroke="#132e65" stroke-width="1.5"></path><path d="M-91.93 553.18L-91.93 553.18" stroke="#132e65" stroke-width="1.5"></path><path d="M-91.93 553.18L-44.68 659.29" stroke="#132e65" stroke-width="1.5"></path><path d="M-91.93 553.18L59.49 502.29" stroke="#132e65" stroke-width="1.5"></path><path d="M-44.68 659.29L-44.68 659.29" stroke="#132e65" stroke-width="1.5"></path><path d="M-44.68 659.29L64.18 655.12" stroke="#132e65" stroke-width="1.5"></path><path d="M-44.68 659.29L59.49 502.29" stroke="#132e65" stroke-width="1.5"></path><path d="M59.49 502.29L59.49 502.29" stroke="#132e65" stroke-width="1.5"></path><path d="M59.49 502.29L64.18 655.12" stroke="#132e65" stroke-width="1.5"></path><path d="M64.18 655.12L64.18 655.12" stroke="#132e65" stroke-width="1.5"></path><path d="M64.18 655.12L245.53 656.72" stroke="#132e65" stroke-width="1.5"></path><path d="M64.18 655.12L-91.93 553.18" stroke="#132e65" stroke-width="1.5"></path><path d="M64.18 655.12L255 410.31" stroke="#132e65" stroke-width="1.5"></path><path d="M64.18 655.12L-83.7 380.16" stroke="#132e65" stroke-width="1.5"></path><path d="M255 410.31L255 410.31" stroke="#132e65" stroke-width="1.5"></path><path d="M255 410.31L400.56 399.63" stroke="#132e65" stroke-width="1.5"></path><path d="M255 410.31L390.03 555.63" stroke="#132e65" stroke-width="1.5"></path><path d="M255 410.31L59.49 502.29" stroke="#132e65" stroke-width="1.5"></path><path d="M255 410.31L245.53 656.72" stroke="#132e65" stroke-width="1.5"></path><path d="M255 410.31L524.78 384.61" stroke="#132e65" stroke-width="1.5"></path><path d="M245.53 656.72L245.53 656.72" stroke="#132e65" stroke-width="1.5"></path><path d="M245.53 656.72L376.65 691.51" stroke="#132e65" stroke-width="1.5"></path><path d="M245.53 656.72L390.03 555.63" stroke="#132e65" stroke-width="1.5"></path><path d="M400.56 399.63L400.56 399.63" stroke="#132e65" stroke-width="1.5"></path><path d="M400.56 399.63L524.78 384.61" stroke="#132e65" stroke-width="1.5"></path><path d="M400.56 399.63L390.03 555.63" stroke="#132e65" stroke-width="1.5"></path><path d="M400.56 399.63L537.55 526.41" stroke="#132e65" stroke-width="1.5"></path><path d="M400.56 399.63L376.65 691.51" stroke="#132e65" stroke-width="1.5"></path><path d="M400.56 399.63L699.32 377.86" stroke="#132e65" stroke-width="1.5"></path><path d="M390.03 555.63L390.03 555.63" stroke="#132e65" stroke-width="1.5"></path><path d="M390.03 555.63L376.65 691.51" stroke="#132e65" stroke-width="1.5"></path><path d="M390.03 555.63L537.55 526.41" stroke="#132e65" stroke-width="1.5"></path><path d="M376.65 691.51L376.65 691.51" stroke="#132e65" stroke-width="1.5"></path><path d="M376.65 691.51L543.45 707.19" stroke="#132e65" stroke-width="1.5"></path><path d="M376.65 691.51L537.55 526.41" stroke="#132e65" stroke-width="1.5"></path><path d="M376.65 691.51L651.19 702.41" stroke="#132e65" stroke-width="1.5"></path><path d="M524.78 384.61L524.78 384.61" stroke="#132e65" stroke-width="1.5"></path><path d="M524.78 384.61L537.55 526.41" stroke="#132e65" stroke-width="1.5"></path><path d="M537.55 526.41L537.55 526.41" stroke="#132e65" stroke-width="1.5"></path><path d="M543.45 707.19L543.45 707.19" stroke="#132e65" stroke-width="1.5"></path><path d="M543.45 707.19L651.19 702.41" stroke="#132e65" stroke-width="1.5"></path><path d="M543.45 707.19L537.55 526.41" stroke="#132e65" stroke-width="1.5"></path><path d="M543.45 707.19L390.03 555.63" stroke="#132e65" stroke-width="1.5"></path><path d="M543.45 707.19L693.06 491.5" stroke="#132e65" stroke-width="1.5"></path><path d="M699.32 377.86L699.32 377.86" stroke="#132e65" stroke-width="1.5"></path><path d="M699.32 377.86L693.06 491.5" stroke="#132e65" stroke-width="1.5"></path><path d="M699.32 377.86L848.39 353.37" stroke="#132e65" stroke-width="1.5"></path><path d="M699.32 377.86L794.09 254.2" stroke="#132e65" stroke-width="1.5"></path><path d="M699.32 377.86L524.78 384.61" stroke="#132e65" stroke-width="1.5"></path><path d="M693.06 491.5L693.06 491.5" stroke="#132e65" stroke-width="1.5"></path><path d="M693.06 491.5L833.3 494.4" stroke="#132e65" stroke-width="1.5"></path><path d="M693.06 491.5L537.55 526.41" stroke="#132e65" stroke-width="1.5"></path><path d="M693.06 491.5L524.78 384.61" stroke="#132e65" stroke-width="1.5"></path><path d="M651.19 702.41L651.19 702.41" stroke="#132e65" stroke-width="1.5"></path><path d="M651.19 702.41L830.69 643.68" stroke="#132e65" stroke-width="1.5"></path><path d="M651.19 702.41L537.55 526.41" stroke="#132e65" stroke-width="1.5"></path><path d="M651.19 702.41L693.06 491.5" stroke="#132e65" stroke-width="1.5"></path><path d="M794.09 254.2L794.09 254.2" stroke="#132e65" stroke-width="1.5"></path><path d="M794.09 254.2L848.39 353.37" stroke="#132e65" stroke-width="1.5"></path><path d="M794.09 254.2L960.76 376.41" stroke="#132e65" stroke-width="1.5"></path><path d="M794.09 254.2L1002.93 195.41" stroke="#132e65" stroke-width="1.5"></path><path d="M794.09 254.2L833.3 494.4" stroke="#132e65" stroke-width="1.5"></path><path d="M794.09 254.2L693.06 491.5" stroke="#132e65" stroke-width="1.5"></path><path d="M848.39 353.37L848.39 353.37" stroke="#132e65" stroke-width="1.5"></path><path d="M848.39 353.37L960.76 376.41" stroke="#132e65" stroke-width="1.5"></path><path d="M848.39 353.37L833.3 494.4" stroke="#132e65" stroke-width="1.5"></path><path d="M833.3 494.4L833.3 494.4" stroke="#132e65" stroke-width="1.5"></path><path d="M833.3 494.4L937.83 556.77" stroke="#132e65" stroke-width="1.5"></path><path d="M833.3 494.4L830.69 643.68" stroke="#132e65" stroke-width="1.5"></path><path d="M833.3 494.4L960.76 376.41" stroke="#132e65" stroke-width="1.5"></path><path d="M830.69 643.68L830.69 643.68" stroke="#132e65" stroke-width="1.5"></path><path d="M830.69 643.68L937.83 556.77" stroke="#132e65" stroke-width="1.5"></path><path d="M830.69 643.68L954.76 712.01" stroke="#132e65" stroke-width="1.5"></path><path d="M966.46 -82.23L966.46 -82.23" stroke="#132e65" stroke-width="1.5"></path><path d="M966.46 -82.23L951.67 42.16" stroke="#132e65" stroke-width="1.5"></path><path d="M966.46 -82.23L1100.75 50.03" stroke="#132e65" stroke-width="1.5"></path><path d="M966.46 -82.23L1002.93 195.41" stroke="#132e65" stroke-width="1.5"></path><path d="M966.46 -82.23L1241.66 55.65" stroke="#132e65" stroke-width="1.5"></path><path d="M951.67 42.16L951.67 42.16" stroke="#132e65" stroke-width="1.5"></path><path d="M951.67 42.16L1100.75 50.03" stroke="#132e65" stroke-width="1.5"></path><path d="M951.67 42.16L1002.93 195.41" stroke="#132e65" stroke-width="1.5"></path><path d="M951.67 42.16L1104.07 225.01" stroke="#132e65" stroke-width="1.5"></path><path d="M951.67 42.16L794.09 254.2" stroke="#132e65" stroke-width="1.5"></path><path d="M1002.93 195.41L1002.93 195.41" stroke="#132e65" stroke-width="1.5"></path><path d="M1002.93 195.41L1104.07 225.01" stroke="#132e65" stroke-width="1.5"></path><path d="M1002.93 195.41L1100.75 50.03" stroke="#132e65" stroke-width="1.5"></path><path d="M1002.93 195.41L960.76 376.41" stroke="#132e65" stroke-width="1.5"></path><path d="M960.76 376.41L960.76 376.41" stroke="#132e65" stroke-width="1.5"></path><path d="M960.76 376.41L937.83 556.77" stroke="#132e65" stroke-width="1.5"></path><path d="M937.83 556.77L937.83 556.77" stroke="#132e65" stroke-width="1.5"></path><path d="M937.83 556.77L954.76 712.01" stroke="#132e65" stroke-width="1.5"></path><path d="M954.76 712.01L954.76 712.01" stroke="#132e65" stroke-width="1.5"></path><path d="M954.76 712.01L1094.17 679.17" stroke="#132e65" stroke-width="1.5"></path><path d="M1100.75 50.03L1100.75 50.03" stroke="#132e65" stroke-width="1.5"></path><path d="M1100.75 50.03L1241.66 55.65" stroke="#132e65" stroke-width="1.5"></path><path d="M1104.07 225.01L1104.07 225.01" stroke="#132e65" stroke-width="1.5"></path><path d="M1104.07 225.01L1100.75 50.03" stroke="#132e65" stroke-width="1.5"></path><path d="M1104.07 225.01L1147.75 399.55" stroke="#132e65" stroke-width="1.5"></path><path d="M1104.07 225.01L1302.51 240.17" stroke="#132e65" stroke-width="1.5"></path><path d="M1147.75 399.55L1147.75 399.55" stroke="#132e65" stroke-width="1.5"></path><path d="M1147.75 399.55L1247.95 387.02" stroke="#132e65" stroke-width="1.5"></path><path d="M1147.75 399.55L1157.23 543.16" stroke="#132e65" stroke-width="1.5"></path><path d="M1147.75 399.55L960.76 376.41" stroke="#132e65" stroke-width="1.5"></path><path d="M1147.75 399.55L1308.31 537.45" stroke="#132e65" stroke-width="1.5"></path><path d="M1157.23 543.16L1157.23 543.16" stroke="#132e65" stroke-width="1.5"></path><path d="M1157.23 543.16L1094.17 679.17" stroke="#132e65" stroke-width="1.5"></path><path d="M1094.17 679.17L1094.17 679.17" stroke="#132e65" stroke-width="1.5"></path><path d="M1094.17 679.17L937.83 556.77" stroke="#132e65" stroke-width="1.5"></path><path d="M1094.17 679.17L1298.67 678.74" stroke="#132e65" stroke-width="1.5"></path><path d="M1282.18 -102.04L1282.18 -102.04" stroke="#132e65" stroke-width="1.5"></path><path d="M1282.18 -102.04L1241.66 55.65" stroke="#132e65" stroke-width="1.5"></path><path d="M1282.18 -102.04L1451.1 -92.83" stroke="#132e65" stroke-width="1.5"></path><path d="M1282.18 -102.04L1100.75 50.03" stroke="#132e65" stroke-width="1.5"></path><path d="M1282.18 -102.04L1423.15 98.45" stroke="#132e65" stroke-width="1.5"></path><path d="M1241.66 55.65L1241.66 55.65" stroke="#132e65" stroke-width="1.5"></path><path d="M1241.66 55.65L1423.15 98.45" stroke="#132e65" stroke-width="1.5"></path><path d="M1302.51 240.17L1302.51 240.17" stroke="#132e65" stroke-width="1.5"></path><path d="M1302.51 240.17L1396.32 339.24" stroke="#132e65" stroke-width="1.5"></path><path d="M1302.51 240.17L1247.95 387.02" stroke="#132e65" stroke-width="1.5"></path><path d="M1247.95 387.02L1247.95 387.02" stroke="#132e65" stroke-width="1.5"></path><path d="M1247.95 387.02L1396.32 339.24" stroke="#132e65" stroke-width="1.5"></path><path d="M1247.95 387.02L1308.31 537.45" stroke="#132e65" stroke-width="1.5"></path><path d="M1308.31 537.45L1308.31 537.45" stroke="#132e65" stroke-width="1.5"></path><path d="M1308.31 537.45L1405.23 529.13" stroke="#132e65" stroke-width="1.5"></path><path d="M1308.31 537.45L1298.67 678.74" stroke="#132e65" stroke-width="1.5"></path><path d="M1308.31 537.45L1390.47 660.05" stroke="#132e65" stroke-width="1.5"></path><path d="M1308.31 537.45L1157.23 543.16" stroke="#132e65" stroke-width="1.5"></path><path d="M1298.67 678.74L1298.67 678.74" stroke="#132e65" stroke-width="1.5"></path><path d="M1298.67 678.74L1390.47 660.05" stroke="#132e65" stroke-width="1.5"></path><path d="M1298.67 678.74L1405.23 529.13" stroke="#132e65" stroke-width="1.5"></path><path d="M1298.67 678.74L1157.23 543.16" stroke="#132e65" stroke-width="1.5"></path><path d="M1451.1 -92.83L1451.1 -92.83" stroke="#132e65" stroke-width="1.5"></path><path d="M1451.1 -92.83L1557.72 -108.34" stroke="#132e65" stroke-width="1.5"></path><path d="M1451.1 -92.83L1423.15 98.45" stroke="#132e65" stroke-width="1.5"></path><path d="M1451.1 -92.83L1554.7 107.07" stroke="#132e65" stroke-width="1.5"></path><path d="M1451.1 -92.83L1241.66 55.65" stroke="#132e65" stroke-width="1.5"></path><path d="M1451.1 -92.83L1460 190.61" stroke="#132e65" stroke-width="1.5"></path><path d="M1423.15 98.45L1423.15 98.45" stroke="#132e65" stroke-width="1.5"></path><path d="M1423.15 98.45L1460 190.61" stroke="#132e65" stroke-width="1.5"></path><path d="M1423.15 98.45L1554.7 107.07" stroke="#132e65" stroke-width="1.5"></path><path d="M1423.15 98.45L1538.15 221.88" stroke="#132e65" stroke-width="1.5"></path><path d="M1423.15 98.45L1302.51 240.17" stroke="#132e65" stroke-width="1.5"></path><path d="M1460 190.61L1460 190.61" stroke="#132e65" stroke-width="1.5"></path><path d="M1460 190.61L1538.15 221.88" stroke="#132e65" stroke-width="1.5"></path><path d="M1460 190.61L1554.7 107.07" stroke="#132e65" stroke-width="1.5"></path><path d="M1396.32 339.24L1396.32 339.24" stroke="#132e65" stroke-width="1.5"></path><path d="M1396.32 339.24L1545.42 346.89" stroke="#132e65" stroke-width="1.5"></path><path d="M1396.32 339.24L1460 190.61" stroke="#132e65" stroke-width="1.5"></path><path d="M1405.23 529.13L1405.23 529.13" stroke="#132e65" stroke-width="1.5"></path><path d="M1405.23 529.13L1390.47 660.05" stroke="#132e65" stroke-width="1.5"></path><path d="M1405.23 529.13L1396.32 339.24" stroke="#132e65" stroke-width="1.5"></path><path d="M1405.23 529.13L1598.68 518.89" stroke="#132e65" stroke-width="1.5"></path><path d="M1390.47 660.05L1390.47 660.05" stroke="#132e65" stroke-width="1.5"></path><path d="M1390.47 660.05L1557.51 656.97" stroke="#132e65" stroke-width="1.5"></path><path d="M1390.47 660.05L1598.68 518.89" stroke="#132e65" stroke-width="1.5"></path><path d="M1557.72 -108.34L1557.72 -108.34" stroke="#132e65" stroke-width="1.5"></path><path d="M1557.72 -108.34L1554.7 107.07" stroke="#132e65" stroke-width="1.5"></path><path d="M1554.7 107.07L1554.7 107.07" stroke="#132e65" stroke-width="1.5"></path><path d="M1554.7 107.07L1538.15 221.88" stroke="#132e65" stroke-width="1.5"></path><path d="M1554.7 107.07L1545.42 346.89" stroke="#132e65" stroke-width="1.5"></path><path d="M1538.15 221.88L1538.15 221.88" stroke="#132e65" stroke-width="1.5"></path><path d="M1538.15 221.88L1545.42 346.89" stroke="#132e65" stroke-width="1.5"></path><path d="M1545.42 346.89L1545.42 346.89" stroke="#132e65" stroke-width="1.5"></path><path d="M1545.42 346.89L1460 190.61" stroke="#132e65" stroke-width="1.5"></path><path d="M1598.68 518.89L1598.68 518.89" stroke="#132e65" stroke-width="1.5"></path><path d="M1598.68 518.89L1557.51 656.97" stroke="#132e65" stroke-width="1.5"></path><path d="M1598.68 518.89L1545.42 346.89" stroke="#132e65" stroke-width="1.5"></path><path d="M1557.51 656.97L1557.51 656.97" stroke="#132e65" stroke-width="1.5"></path><path d="M1557.51 656.97L1405.23 529.13" stroke="#132e65" stroke-width="1.5"></path><path d="M1557.51 656.97L1298.67 678.74" stroke="#132e65" stroke-width="1.5"></path><circle r="5" cx="-83.7" cy="380.16" fill="#132e65"></circle><circle r="5" cx="-91.93" cy="553.18" fill="#132e65"></circle><circle r="5" cx="-44.68" cy="659.29" fill="#132e65"></circle><circle r="5" cx="59.49" cy="502.29" fill="#132e65"></circle><circle r="5" cx="64.18" cy="655.12" fill="#132e65"></circle><circle r="5" cx="255" cy="410.31" fill="#132e65"></circle><circle r="5" cx="245.53" cy="656.72" fill="#132e65"></circle><circle r="5" cx="400.56" cy="399.63" fill="#132e65"></circle><circle r="5" cx="390.03" cy="555.63" fill="#132e65"></circle><circle r="5" cx="376.65" cy="691.51" fill="#132e65"></circle><circle r="5" cx="524.78" cy="384.61" fill="#132e65"></circle><circle r="5" cx="537.55" cy="526.41" fill="#132e65"></circle><circle r="5" cx="543.45" cy="707.19" fill="#132e65"></circle><circle r="5" cx="699.32" cy="377.86" fill="#132e65"></circle><circle r="5" cx="693.06" cy="491.5" fill="#132e65"></circle><circle r="5" cx="651.19" cy="702.41" fill="#132e65"></circle><circle r="5" cx="794.09" cy="254.2" fill="#132e65"></circle><circle r="5" cx="848.39" cy="353.37" fill="#132e65"></circle><circle r="5" cx="833.3" cy="494.4" fill="#132e65"></circle><circle r="5" cx="830.69" cy="643.68" fill="#132e65"></circle><circle r="5" cx="966.46" cy="-82.23" fill="#132e65"></circle><circle r="5" cx="951.67" cy="42.16" fill="#132e65"></circle><circle r="5" cx="1002.93" cy="195.41" fill="#132e65"></circle><circle r="5" cx="960.76" cy="376.41" fill="#132e65"></circle><circle r="5" cx="937.83" cy="556.77" fill="#132e65"></circle><circle r="5" cx="954.76" cy="712.01" fill="#132e65"></circle><circle r="5" cx="1100.75" cy="50.03" fill="#132e65"></circle><circle r="5" cx="1104.07" cy="225.01" fill="#132e65"></circle><circle r="5" cx="1147.75" cy="399.55" fill="#132e65"></circle><circle r="5" cx="1157.23" cy="543.16" fill="#132e65"></circle><circle r="5" cx="1094.17" cy="679.17" fill="#132e65"></circle><circle r="5" cx="1282.18" cy="-102.04" fill="#132e65"></circle><circle r="5" cx="1241.66" cy="55.65" fill="#132e65"></circle><circle r="5" cx="1302.51" cy="240.17" fill="#132e65"></circle><circle r="5" cx="1247.95" cy="387.02" fill="#132e65"></circle><circle r="5" cx="1308.31" cy="537.45" fill="#132e65"></circle><circle r="5" cx="1298.67" cy="678.74" fill="#132e65"></circle><circle r="5" cx="1451.1" cy="-92.83" fill="#132e65"></circle><circle r="5" cx="1423.15" cy="98.45" fill="#132e65"></circle><circle r="5" cx="1460" cy="190.61" fill="#132e65"></circle><circle r="5" cx="1396.32" cy="339.24" fill="#132e65"></circle><circle r="5" cx="1405.23" cy="529.13" fill="#132e65"></circle><circle r="5" cx="1390.47" cy="660.05" fill="#132e65"></circle><circle r="5" cx="1557.72" cy="-108.34" fill="#132e65"></circle><circle r="5" cx="1554.7" cy="107.07" fill="#132e65"></circle><circle r="5" cx="1538.15" cy="221.88" fill="#132e65"></circle><circle r="5" cx="1545.42" cy="346.89" fill="#132e65"></circle><circle r="5" cx="1598.68" cy="518.89" fill="#132e65"></circle><circle r="5" cx="1557.51" cy="656.97" fill="#132e65"></circle><path d="M-52.79 515.72L-52.79 515.72" stroke="hsl(228.5, 77.2%, 51.5%)" stroke-width="1.5"></path><path d="M-52.79 515.72L81.47 488.54" stroke="hsl(228.5, 77.2%, 51.5%)" stroke-width="1.5"></path><path d="M-52.79 515.72L-57.73 668.26" stroke="hsl(228.5, 77.2%, 51.5%)" stroke-width="1.5"></path><path d="M-52.79 515.72L88.43 640.66" stroke="hsl(228.5, 77.2%, 51.5%)" stroke-width="1.5"></path><path d="M-57.73 668.26L-57.73 668.26" stroke="hsl(228.5, 77.2%, 51.5%)" stroke-width="1.5"></path><path d="M-57.73 668.26L88.43 640.66" stroke="hsl(228.5, 77.2%, 51.5%)" stroke-width="1.5"></path><path d="M194.33 697.47L194.33 697.47" stroke="hsl(228.5, 77.2%, 51.5%)" stroke-width="1.5"></path><path d="M194.33 697.47L88.43 640.66" stroke="hsl(228.5, 77.2%, 51.5%)" stroke-width="1.5"></path><path d="M194.33 697.47L245.12 540.19" stroke="hsl(228.5, 77.2%, 51.5%)" stroke-width="1.5"></path><path d="M194.33 697.47L350.91 537.31" stroke="hsl(228.5, 77.2%, 51.5%)" stroke-width="1.5"></path><path d="M350.91 537.31L350.91 537.31" stroke="hsl(228.5, 77.2%, 51.5%)" stroke-width="1.5"></path><path d="M350.91 537.31L245.12 540.19" stroke="hsl(228.5, 77.2%, 51.5%)" stroke-width="1.5"></path><path d="M350.91 537.31L510.16 560.35" stroke="hsl(228.5, 77.2%, 51.5%)" stroke-width="1.5"></path><path d="M350.91 537.31L536.63 652.61" stroke="hsl(228.5, 77.2%, 51.5%)" stroke-width="1.5"></path><path d="M350.91 537.31L81.47 488.54" stroke="hsl(228.5, 77.2%, 51.5%)" stroke-width="1.5"></path><path d="M510.16 560.35L510.16 560.35" stroke="hsl(228.5, 77.2%, 51.5%)" stroke-width="1.5"></path><path d="M510.16 560.35L536.63 652.61" stroke="hsl(228.5, 77.2%, 51.5%)" stroke-width="1.5"></path><path d="M510.16 560.35L682.87 491.94" stroke="hsl(228.5, 77.2%, 51.5%)" stroke-width="1.5"></path><path d="M536.63 652.61L536.63 652.61" stroke="hsl(228.5, 77.2%, 51.5%)" stroke-width="1.5"></path><path d="M536.63 652.61L699.4 705.22" stroke="hsl(228.5, 77.2%, 51.5%)" stroke-width="1.5"></path><path d="M536.63 652.61L682.87 491.94" stroke="hsl(228.5, 77.2%, 51.5%)" stroke-width="1.5"></path><path d="M536.63 652.61L807.42 662.55" stroke="hsl(228.5, 77.2%, 51.5%)" stroke-width="1.5"></path><path d="M536.63 652.61L245.12 540.19" stroke="hsl(228.5, 77.2%, 51.5%)" stroke-width="1.5"></path><path d="M682.87 491.94L682.87 491.94" stroke="hsl(228.5, 77.2%, 51.5%)" stroke-width="1.5"></path><path d="M682.87 491.94L700.86 365.47" stroke="hsl(228.5, 77.2%, 51.5%)" stroke-width="1.5"></path><path d="M682.87 491.94L788.59 392.6" stroke="hsl(228.5, 77.2%, 51.5%)" stroke-width="1.5"></path><path d="M682.87 491.94L861.46 530.37" stroke="hsl(228.5, 77.2%, 51.5%)" stroke-width="1.5"></path><path d="M682.87 491.94L807.42 662.55" stroke="hsl(228.5, 77.2%, 51.5%)" stroke-width="1.5"></path><path d="M682.87 491.94L699.4 705.22" stroke="hsl(228.5, 77.2%, 51.5%)" stroke-width="1.5"></path><path d="M788.59 392.6L788.59 392.6" stroke="hsl(228.5, 77.2%, 51.5%)" stroke-width="1.5"></path><path d="M788.59 392.6L700.86 365.47" stroke="hsl(228.5, 77.2%, 51.5%)" stroke-width="1.5"></path><path d="M788.59 392.6L861.46 530.37" stroke="hsl(228.5, 77.2%, 51.5%)" stroke-width="1.5"></path><path d="M788.59 392.6L987.57 371.62" stroke="hsl(228.5, 77.2%, 51.5%)" stroke-width="1.5"></path><path d="M807.42 662.55L807.42 662.55" stroke="hsl(228.5, 77.2%, 51.5%)" stroke-width="1.5"></path><path d="M807.42 662.55L699.4 705.22" stroke="hsl(228.5, 77.2%, 51.5%)" stroke-width="1.5"></path><path d="M807.42 662.55L942.03 668.7" stroke="hsl(228.5, 77.2%, 51.5%)" stroke-width="1.5"></path><path d="M807.42 662.55L861.46 530.37" stroke="hsl(228.5, 77.2%, 51.5%)" stroke-width="1.5"></path><path d="M807.42 662.55L977.76 503.76" stroke="hsl(228.5, 77.2%, 51.5%)" stroke-width="1.5"></path><path d="M807.42 662.55L788.59 392.6" stroke="hsl(228.5, 77.2%, 51.5%)" stroke-width="1.5"></path><path d="M977.76 503.76L977.76 503.76" stroke="hsl(228.5, 77.2%, 51.5%)" stroke-width="1.5"></path><path d="M977.76 503.76L861.46 530.37" stroke="hsl(228.5, 77.2%, 51.5%)" stroke-width="1.5"></path><path d="M977.76 503.76L987.57 371.62" stroke="hsl(228.5, 77.2%, 51.5%)" stroke-width="1.5"></path><path d="M977.76 503.76L1109.78 522.25" stroke="hsl(228.5, 77.2%, 51.5%)" stroke-width="1.5"></path><path d="M977.76 503.76L942.03 668.7" stroke="hsl(228.5, 77.2%, 51.5%)" stroke-width="1.5"></path><path d="M977.76 503.76L1098.08 641.7" stroke="hsl(228.5, 77.2%, 51.5%)" stroke-width="1.5"></path><path d="M977.76 503.76L1140.22 362.84" stroke="hsl(228.5, 77.2%, 51.5%)" stroke-width="1.5"></path><path d="M942.03 668.7L942.03 668.7" stroke="hsl(228.5, 77.2%, 51.5%)" stroke-width="1.5"></path><path d="M942.03 668.7L1098.08 641.7" stroke="hsl(228.5, 77.2%, 51.5%)" stroke-width="1.5"></path><path d="M1109.78 522.25L1109.78 522.25" stroke="hsl(228.5, 77.2%, 51.5%)" stroke-width="1.5"></path><path d="M1109.78 522.25L1098.08 641.7" stroke="hsl(228.5, 77.2%, 51.5%)" stroke-width="1.5"></path><path d="M1259.53 546.23L1259.53 546.23" stroke="hsl(228.5, 77.2%, 51.5%)" stroke-width="1.5"></path><path d="M1259.53 546.23L1242.88 640.37" stroke="hsl(228.5, 77.2%, 51.5%)" stroke-width="1.5"></path><path d="M1259.53 546.23L1109.78 522.25" stroke="hsl(228.5, 77.2%, 51.5%)" stroke-width="1.5"></path><path d="M1259.53 546.23L1406.13 646.49" stroke="hsl(228.5, 77.2%, 51.5%)" stroke-width="1.5"></path><path d="M1259.53 546.23L1445.71 558.17" stroke="hsl(228.5, 77.2%, 51.5%)" stroke-width="1.5"></path><path d="M1259.53 546.23L1098.08 641.7" stroke="hsl(228.5, 77.2%, 51.5%)" stroke-width="1.5"></path><path d="M1456.17 -58.55L1456.17 -58.55" stroke="hsl(228.5, 77.2%, 51.5%)" stroke-width="1.5"></path><path d="M1456.17 -58.55L1438.86 84.66" stroke="hsl(228.5, 77.2%, 51.5%)" stroke-width="1.5"></path><path d="M1456.17 -58.55L1280.4 -91.45" stroke="hsl(228.5, 77.2%, 51.5%)" stroke-width="1.5"></path><path d="M1456.17 -58.55L1297.12 56.33" stroke="hsl(228.5, 77.2%, 51.5%)" stroke-width="1.5"></path><path d="M1456.17 -58.55L1598.5 88.2" stroke="hsl(228.5, 77.2%, 51.5%)" stroke-width="1.5"></path><path d="M1456.17 -58.55L1552.17 210.39" stroke="hsl(228.5, 77.2%, 51.5%)" stroke-width="1.5"></path><path d="M1555.4 703.78L1555.4 703.78" stroke="hsl(228.5, 77.2%, 51.5%)" stroke-width="1.5"></path><path d="M1555.4 703.78L1406.13 646.49" stroke="hsl(228.5, 77.2%, 51.5%)" stroke-width="1.5"></path><path d="M1555.4 703.78L1445.71 558.17" stroke="hsl(228.5, 77.2%, 51.5%)" stroke-width="1.5"></path><path d="M1555.4 703.78L1556.84 388.25" stroke="hsl(228.5, 77.2%, 51.5%)" stroke-width="1.5"></path><path d="M1555.4 703.78L1242.88 640.37" stroke="hsl(228.5, 77.2%, 51.5%)" stroke-width="1.5"></path><path d="M1555.4 703.78L1259.53 546.23" stroke="hsl(228.5, 77.2%, 51.5%)" stroke-width="1.5"></path><path d="M81.47 488.54L81.47 488.54" stroke="hsl(228.5, 77.2%, 51.5%)" stroke-width="1.5"></path><path d="M81.47 488.54L88.43 640.66" stroke="hsl(228.5, 77.2%, 51.5%)" stroke-width="1.5"></path><path d="M88.43 640.66L88.43 640.66" stroke="hsl(228.5, 77.2%, 51.5%)" stroke-width="1.5"></path><path d="M245.12 540.19L245.12 540.19" stroke="hsl(228.5, 77.2%, 51.5%)" stroke-width="1.5"></path><path d="M245.12 540.19L81.47 488.54" stroke="hsl(228.5, 77.2%, 51.5%)" stroke-width="1.5"></path><path d="M245.12 540.19L88.43 640.66" stroke="hsl(228.5, 77.2%, 51.5%)" stroke-width="1.5"></path><path d="M700.86 365.47L700.86 365.47" stroke="hsl(228.5, 77.2%, 51.5%)" stroke-width="1.5"></path><path d="M699.4 705.22L699.4 705.22" stroke="hsl(228.5, 77.2%, 51.5%)" stroke-width="1.5"></path><path d="M699.4 705.22L510.16 560.35" stroke="hsl(228.5, 77.2%, 51.5%)" stroke-width="1.5"></path><path d="M861.46 530.37L861.46 530.37" stroke="hsl(228.5, 77.2%, 51.5%)" stroke-width="1.5"></path><path d="M861.46 530.37L942.03 668.7" stroke="hsl(228.5, 77.2%, 51.5%)" stroke-width="1.5"></path><path d="M1004.32 220.93L1004.32 220.93" stroke="hsl(228.5, 77.2%, 51.5%)" stroke-width="1.5"></path><path d="M1004.32 220.93L1101.51 198.31" stroke="hsl(228.5, 77.2%, 51.5%)" stroke-width="1.5"></path><path d="M1004.32 220.93L987.57 371.62" stroke="hsl(228.5, 77.2%, 51.5%)" stroke-width="1.5"></path><path d="M1004.32 220.93L1159.17 105.84" stroke="hsl(228.5, 77.2%, 51.5%)" stroke-width="1.5"></path><path d="M1004.32 220.93L1140.22 362.84" stroke="hsl(228.5, 77.2%, 51.5%)" stroke-width="1.5"></path><path d="M1004.32 220.93L1270.87 236.9" stroke="hsl(228.5, 77.2%, 51.5%)" stroke-width="1.5"></path><path d="M1004.32 220.93L788.59 392.6" stroke="hsl(228.5, 77.2%, 51.5%)" stroke-width="1.5"></path><path d="M987.57 371.62L987.57 371.62" stroke="hsl(228.5, 77.2%, 51.5%)" stroke-width="1.5"></path><path d="M987.57 371.62L1140.22 362.84" stroke="hsl(228.5, 77.2%, 51.5%)" stroke-width="1.5"></path><path d="M987.57 371.62L1109.78 522.25" stroke="hsl(228.5, 77.2%, 51.5%)" stroke-width="1.5"></path><path d="M1159.17 105.84L1159.17 105.84" stroke="hsl(228.5, 77.2%, 51.5%)" stroke-width="1.5"></path><path d="M1159.17 105.84L1101.51 198.31" stroke="hsl(228.5, 77.2%, 51.5%)" stroke-width="1.5"></path><path d="M1159.17 105.84L1297.12 56.33" stroke="hsl(228.5, 77.2%, 51.5%)" stroke-width="1.5"></path><path d="M1101.51 198.31L1101.51 198.31" stroke="hsl(228.5, 77.2%, 51.5%)" stroke-width="1.5"></path><path d="M1101.51 198.31L1140.22 362.84" stroke="hsl(228.5, 77.2%, 51.5%)" stroke-width="1.5"></path><path d="M1101.51 198.31L1270.87 236.9" stroke="hsl(228.5, 77.2%, 51.5%)" stroke-width="1.5"></path><path d="M1101.51 198.31L987.57 371.62" stroke="hsl(228.5, 77.2%, 51.5%)" stroke-width="1.5"></path><path d="M1101.51 198.31L1297.12 56.33" stroke="hsl(228.5, 77.2%, 51.5%)" stroke-width="1.5"></path><path d="M1140.22 362.84L1140.22 362.84" stroke="hsl(228.5, 77.2%, 51.5%)" stroke-width="1.5"></path><path d="M1140.22 362.84L1297.57 347.45" stroke="hsl(228.5, 77.2%, 51.5%)" stroke-width="1.5"></path><path d="M1140.22 362.84L1109.78 522.25" stroke="hsl(228.5, 77.2%, 51.5%)" stroke-width="1.5"></path><path d="M1140.22 362.84L1270.87 236.9" stroke="hsl(228.5, 77.2%, 51.5%)" stroke-width="1.5"></path><path d="M1098.08 641.7L1098.08 641.7" stroke="hsl(228.5, 77.2%, 51.5%)" stroke-width="1.5"></path><path d="M1098.08 641.7L1242.88 640.37" stroke="hsl(228.5, 77.2%, 51.5%)" stroke-width="1.5"></path><path d="M1280.4 -91.45L1280.4 -91.45" stroke="hsl(228.5, 77.2%, 51.5%)" stroke-width="1.5"></path><path d="M1280.4 -91.45L1297.12 56.33" stroke="hsl(228.5, 77.2%, 51.5%)" stroke-width="1.5"></path><path d="M1280.4 -91.45L1159.17 105.84" stroke="hsl(228.5, 77.2%, 51.5%)" stroke-width="1.5"></path><path d="M1280.4 -91.45L1438.86 84.66" stroke="hsl(228.5, 77.2%, 51.5%)" stroke-width="1.5"></path><path d="M1280.4 -91.45L1270.87 236.9" stroke="hsl(228.5, 77.2%, 51.5%)" stroke-width="1.5"></path><path d="M1280.4 -91.45L1101.51 198.31" stroke="hsl(228.5, 77.2%, 51.5%)" stroke-width="1.5"></path><path d="M1297.12 56.33L1297.12 56.33" stroke="hsl(228.5, 77.2%, 51.5%)" stroke-width="1.5"></path><path d="M1297.12 56.33L1438.86 84.66" stroke="hsl(228.5, 77.2%, 51.5%)" stroke-width="1.5"></path><path d="M1270.87 236.9L1270.87 236.9" stroke="hsl(228.5, 77.2%, 51.5%)" stroke-width="1.5"></path><path d="M1270.87 236.9L1297.57 347.45" stroke="hsl(228.5, 77.2%, 51.5%)" stroke-width="1.5"></path><path d="M1270.87 236.9L1403.14 248.05" stroke="hsl(228.5, 77.2%, 51.5%)" stroke-width="1.5"></path><path d="M1270.87 236.9L1159.17 105.84" stroke="hsl(228.5, 77.2%, 51.5%)" stroke-width="1.5"></path><path d="M1297.57 347.45L1297.57 347.45" stroke="hsl(228.5, 77.2%, 51.5%)" stroke-width="1.5"></path><path d="M1297.57 347.45L1423.69 341.94" stroke="hsl(228.5, 77.2%, 51.5%)" stroke-width="1.5"></path><path d="M1297.57 347.45L1403.14 248.05" stroke="hsl(228.5, 77.2%, 51.5%)" stroke-width="1.5"></path><path d="M1297.57 347.45L1259.53 546.23" stroke="hsl(228.5, 77.2%, 51.5%)" stroke-width="1.5"></path><path d="M1242.88 640.37L1242.88 640.37" stroke="hsl(228.5, 77.2%, 51.5%)" stroke-width="1.5"></path><path d="M1242.88 640.37L1406.13 646.49" stroke="hsl(228.5, 77.2%, 51.5%)" stroke-width="1.5"></path><path d="M1438.86 84.66L1438.86 84.66" stroke="hsl(228.5, 77.2%, 51.5%)" stroke-width="1.5"></path><path d="M1438.86 84.66L1598.5 88.2" stroke="hsl(228.5, 77.2%, 51.5%)" stroke-width="1.5"></path><path d="M1403.14 248.05L1403.14 248.05" stroke="hsl(228.5, 77.2%, 51.5%)" stroke-width="1.5"></path><path d="M1403.14 248.05L1423.69 341.94" stroke="hsl(228.5, 77.2%, 51.5%)" stroke-width="1.5"></path><path d="M1403.14 248.05L1552.17 210.39" stroke="hsl(228.5, 77.2%, 51.5%)" stroke-width="1.5"></path><path d="M1403.14 248.05L1438.86 84.66" stroke="hsl(228.5, 77.2%, 51.5%)" stroke-width="1.5"></path><path d="M1423.69 341.94L1423.69 341.94" stroke="hsl(228.5, 77.2%, 51.5%)" stroke-width="1.5"></path><path d="M1423.69 341.94L1556.84 388.25" stroke="hsl(228.5, 77.2%, 51.5%)" stroke-width="1.5"></path><path d="M1423.69 341.94L1552.17 210.39" stroke="hsl(228.5, 77.2%, 51.5%)" stroke-width="1.5"></path><path d="M1445.71 558.17L1445.71 558.17" stroke="hsl(228.5, 77.2%, 51.5%)" stroke-width="1.5"></path><path d="M1445.71 558.17L1406.13 646.49" stroke="hsl(228.5, 77.2%, 51.5%)" stroke-width="1.5"></path><path d="M1445.71 558.17L1556.84 388.25" stroke="hsl(228.5, 77.2%, 51.5%)" stroke-width="1.5"></path><path d="M1445.71 558.17L1423.69 341.94" stroke="hsl(228.5, 77.2%, 51.5%)" stroke-width="1.5"></path><path d="M1406.13 646.49L1406.13 646.49" stroke="hsl(228.5, 77.2%, 51.5%)" stroke-width="1.5"></path><path d="M1598.5 88.2L1598.5 88.2" stroke="hsl(228.5, 77.2%, 51.5%)" stroke-width="1.5"></path><path d="M1598.5 88.2L1552.17 210.39" stroke="hsl(228.5, 77.2%, 51.5%)" stroke-width="1.5"></path><path d="M1598.5 88.2L1403.14 248.05" stroke="hsl(228.5, 77.2%, 51.5%)" stroke-width="1.5"></path><path d="M1552.17 210.39L1552.17 210.39" stroke="hsl(228.5, 77.2%, 51.5%)" stroke-width="1.5"></path><path d="M1552.17 210.39L1438.86 84.66" stroke="hsl(228.5, 77.2%, 51.5%)" stroke-width="1.5"></path><path d="M1552.17 210.39L1556.84 388.25" stroke="hsl(228.5, 77.2%, 51.5%)" stroke-width="1.5"></path><path d="M1552.17 210.39L1270.87 236.9" stroke="hsl(228.5, 77.2%, 51.5%)" stroke-width="1.5"></path><path d="M1556.84 388.25L1556.84 388.25" stroke="hsl(228.5, 77.2%, 51.5%)" stroke-width="1.5"></path><path d="M1556.84 388.25L1403.14 248.05" stroke="hsl(228.5, 77.2%, 51.5%)" stroke-width="1.5"></path><path d="M1556.84 388.25L1297.57 347.45" stroke="hsl(228.5, 77.2%, 51.5%)" stroke-width="1.5"></path><circle r="25" cx="-52.79" cy="515.72" fill="url(#SvgjsRadialGradient1007)"></circle><circle r="25" cx="-57.73" cy="668.26" fill="url(#SvgjsRadialGradient1007)"></circle><circle r="25" cx="194.33" cy="697.47" fill="url(#SvgjsRadialGradient1007)"></circle><circle r="25" cx="350.91" cy="537.31" fill="url(#SvgjsRadialGradient1007)"></circle><circle r="25" cx="510.16" cy="560.35" fill="url(#SvgjsRadialGradient1007)"></circle><circle r="25" cx="536.63" cy="652.61" fill="url(#SvgjsRadialGradient1007)"></circle><circle r="25" cx="682.87" cy="491.94" fill="url(#SvgjsRadialGradient1007)"></circle><circle r="25" cx="788.59" cy="392.6" fill="url(#SvgjsRadialGradient1007)"></circle><circle r="25" cx="807.42" cy="662.55" fill="url(#SvgjsRadialGradient1007)"></circle><circle r="25" cx="977.76" cy="503.76" fill="url(#SvgjsRadialGradient1007)"></circle><circle r="25" cx="942.03" cy="668.7" fill="url(#SvgjsRadialGradient1007)"></circle><circle r="25" cx="1109.78" cy="522.25" fill="url(#SvgjsRadialGradient1007)"></circle><circle r="25" cx="1259.53" cy="546.23" fill="url(#SvgjsRadialGradient1007)"></circle><circle r="25" cx="1456.17" cy="-58.55" fill="url(#SvgjsRadialGradient1007)"></circle><circle r="25" cx="1555.4" cy="703.78" fill="url(#SvgjsRadialGradient1007)"></circle><circle r="5" cx="81.47" cy="488.54" fill="#8b9ad9"></circle><circle r="5" cx="88.43" cy="640.66" fill="#8b9ad9"></circle><circle r="5" cx="245.12" cy="540.19" fill="#8b9ad9"></circle><circle r="5" cx="700.86" cy="365.47" fill="#8b9ad9"></circle><circle r="5" cx="699.4" cy="705.22" fill="#8b9ad9"></circle><circle r="5" cx="861.46" cy="530.37" fill="#8b9ad9"></circle><circle r="5" cx="1004.32" cy="220.93" fill="#8b9ad9"></circle><circle r="5" cx="987.57" cy="371.62" fill="#8b9ad9"></circle><circle r="5" cx="1159.17" cy="105.84" fill="#8b9ad9"></circle><circle r="5" cx="1101.51" cy="198.31" fill="#8b9ad9"></circle><circle r="5" cx="1140.22" cy="362.84" fill="#8b9ad9"></circle><circle r="5" cx="1098.08" cy="641.7" fill="#8b9ad9"></circle><circle r="5" cx="1280.4" cy="-91.45" fill="#8b9ad9"></circle><circle r="5" cx="1297.12" cy="56.33" fill="#8b9ad9"></circle><circle r="5" cx="1270.87" cy="236.9" fill="#8b9ad9"></circle><circle r="5" cx="1297.57" cy="347.45" fill="#8b9ad9"></circle><circle r="5" cx="1242.88" cy="640.37" fill="#8b9ad9"></circle><circle r="5" cx="1438.86" cy="84.66" fill="#8b9ad9"></circle><circle r="5" cx="1403.14" cy="248.05" fill="#8b9ad9"></circle><circle r="5" cx="1423.69" cy="341.94" fill="#8b9ad9"></circle><circle r="5" cx="1445.71" cy="558.17" fill="#8b9ad9"></circle><circle r="5" cx="1406.13" cy="646.49" fill="#8b9ad9"></circle><circle r="5" cx="1598.5" cy="88.2" fill="#8b9ad9"></circle><circle r="5" cx="1552.17" cy="210.39" fill="#8b9ad9"></circle><circle r="5" cx="1556.84" cy="388.25" fill="#8b9ad9"></circle></g><defs><mask id="SvgjsMask1005"><rect width="1440" height="560" fill="#ffffff"></rect></mask><linearGradient x1="15.28%" y1="-39.29%" x2="84.72%" y2="139.29%" gradientUnits="userSpaceOnUse" id="SvgjsLinearGradient1006"><stop stop-color="#0e2a47" offset="0"></stop><stop stop-color="#00459e" offset="1"></stop></linearGradient><radialGradient id="SvgjsRadialGradient1007"><stop stop-color="#ffffff" offset="0.1"></stop><stop stop-color="#1735b3" offset="0.2"></stop><stop stop-color="rgba(23, 53, 179, 0)" offset="1"></stop></radialGradient></defs></svg>